# xmcd
#
# Track frame offsets: 
#        150
#        17924
#        33204
#        48865
#        64097
#        83497
#        98618
#        116504
#        134801
#        149162
#
# Disc length: 2294 seconds
#
# Revision: 1
# Processed by: cddbd v1.5.2PL0 Copyright (c) Steve Scherf et al.
# Submitted via: ExactAudioCopyFreeDBPlugin 1.0
#
DISCID=8508f40a
DTITLE=泳兒 - 泳兒 - 我自在
DYEAR=2013
DGENRE=Vocal
TTITLE0=心呼吸
TTITLE1=我自在
TTITLE2=睡前服
TTITLE3=睡房宣言
TTITLE4=深白色
TTITLE5=一半床
TTITLE6=通電
TTITLE7=清潔愛
TTITLE8=晚上我是天蠍座
TTITLE9=後來 [國語]
EXTD=英皇娛樂集團 (HK)  2013
EXTT0=
EXTT1=
EXTT2=
EXTT3=
EXTT4=
EXTT5=
EXTT6=
EXTT7=
EXTT8=
EXTT9=
PLAYORDER=
